<svg width="628" height="585" viewBox="0 0 628 585" fill="none" xmlns="http://www.w3.org/2000/svg">
<path id="WhatsApp Image 2025-09-08 at 3.30.31 PM 1 (Traced)" fill-rule="evenodd" clip-rule="evenodd" d="M324.326 1.02459C279.5 5.37859 240.252 20.6766 211.091 45.1596C189.684 63.1336 172.067 92.8086 166.381 120.472C161.001 146.646 164.766 179.041 175.791 201.449C188.996 228.288 209.132 245.075 281.359 289.459C297.309 299.26 318.331 312.563 328.076 319.022L345.792 330.764L365.576 318.808C386.373 306.237 437.258 272.753 438.42 270.873C439.854 268.554 417.984 248.922 398.416 234.962C393.03 231.12 380.914 223.416 371.491 217.844C324.936 190.31 314.334 183.871 301.859 175.552C286.789 165.503 273.068 152.988 268.151 144.809C260.123 131.451 259.905 113.845 267.594 99.7166C269.062 97.0196 272.897 92.3746 276.116 89.3946C292.454 74.2676 329.529 65.3776 354.651 70.5626C365.599 72.8216 372.381 76.3426 379.381 83.3996C390.9 95.0126 395.863 108.867 395.853 129.382C395.848 140.382 394.891 150.145 393.339 155.036C392.833 156.629 395.725 158.397 412.918 167.001C424.013 172.554 433.705 176.861 434.457 176.573C436.544 175.772 444.574 162.857 451.433 149.268C458.865 134.544 465.196 116.005 467.416 102.46C469.553 89.4296 468.924 72.1886 465.975 62.8996C458.7 39.9856 426.638 13.7396 395.859 5.50061C377.006 0.454606 348.536 -1.32741 324.326 1.02459ZM508.359 63.5246C502.859 64.2646 496.982 65.1226 495.299 65.4306L492.238 65.9906L493.509 73.2316C494.208 77.2136 494.797 81.6556 494.819 83.1026L494.859 85.7346L514.109 86.2536C529.344 86.6646 535.027 87.2166 541.359 88.8996C558.547 93.4676 567.677 99.7176 572.34 110.108C574.938 115.899 575.075 116.902 574.619 126.87C574.075 138.794 572.226 145.177 565.322 158.972C539.678 210.213 461.493 282.143 375.359 333.737C354.328 346.335 323.796 362.328 300.859 372.762C197.23 419.9 107.903 434.736 61.2112 412.562C49.4712 406.987 43.5433 399.692 40.2123 386.721C31.0323 350.968 75.0953 287.584 146.859 233.313C152.634 228.946 157.515 225.023 157.706 224.596C157.896 224.169 155.6 220.719 152.602 216.931L147.152 210.043L135.255 218.65C81.8672 257.276 32.4393 311.698 12.8043 353.472C3.00926 374.31 -0.650751 389.4 0.0932487 405.877C0.842249 422.461 5.90325 433.936 17.6173 445.616C34.7832 462.732 60.2453 473.677 90.6353 477.003C106.722 478.763 145.409 477.754 162.359 475.13C225.927 465.293 294.209 440.319 365.68 400.766C442.254 358.388 514.254 302.013 565.29 244.472C608.853 195.357 633.013 143.023 626.457 111.972C624.009 100.375 619.723 92.6306 610.955 83.9606C599.452 72.5876 586.781 66.7516 566.417 63.4486C555.026 61.6016 522.323 61.6436 508.359 63.5246ZM474.359 352.608C458.855 364.478 405.62 399.552 400.534 401.247C399.917 401.453 400.033 404.096 400.849 408.42C405.313 432.079 395.069 459.257 374.229 479.046C349.472 502.556 317.718 513.489 270.669 514.703C236.278 515.59 210.697 512.28 185.153 503.638C181.197 502.3 177.824 501.338 177.659 501.5C176.996 502.154 152.548 506.277 140.168 507.824L126.977 509.472L132.668 517.957C144.135 535.056 163.992 551.997 185.859 563.339C203.088 572.276 224.479 578.838 248.859 582.666C265.424 585.267 315.482 585.264 331.359 582.661C369.051 576.482 399.95 562.642 430.359 538.319C460.93 513.866 483.62 479.755 492.252 445.271C496.318 429.031 497.297 420.435 497.298 400.972C497.299 382.342 496.166 372.955 492.227 358.972C490.342 352.281 486.844 343.933 485.986 344.079C485.641 344.138 480.409 347.976 474.359 352.608Z" fill="white"/>
</svg>
