<svg width="628" height="585" viewBox="0 0 628 585" fill="none" xmlns="http://www.w3.org/2000/svg">
<path fill-rule="evenodd" clip-rule="evenodd" d="M324.467 1.05291C279.641 5.40691 240.393 20.7049 211.232 45.1879C189.825 63.1619 172.208 92.8369 166.522 120.5C161.142 146.674 164.907 179.069 175.932 201.477C189.137 228.316 209.273 245.103 281.5 289.487C297.45 299.288 318.472 312.591 328.217 319.05L345.933 330.792L365.717 318.836C386.514 306.265 437.399 272.781 438.561 270.901C439.995 268.582 418.125 248.95 398.557 234.99C393.171 231.148 381.055 223.444 371.632 217.872C325.077 190.338 314.475 183.899 302 175.58C286.93 165.531 273.209 153.016 268.292 144.837C260.264 131.479 260.046 113.873 267.735 99.7449C269.203 97.0479 273.038 92.4029 276.257 89.4229C292.595 74.2959 329.67 65.4059 354.792 70.5909C365.74 72.8499 372.522 76.3709 379.522 83.4279C391.041 95.0409 396.004 108.895 395.994 129.41C395.989 140.41 395.032 150.173 393.48 155.064C392.974 156.657 395.866 158.425 413.059 167.029C424.154 172.582 433.846 176.889 434.598 176.601C436.685 175.8 444.715 162.885 451.574 149.296C459.006 134.572 465.337 116.033 467.557 102.488C469.694 89.4579 469.065 72.2169 466.116 62.9279C458.841 40.0139 426.779 13.7679 396 5.52893C377.147 0.482926 348.677 -1.29909 324.467 1.05291ZM508.5 63.5529C503 64.2929 497.123 65.1509 495.44 65.4589L492.379 66.0189L493.65 73.2599C494.349 77.2419 494.938 81.6839 494.96 83.1309L495 85.7629L514.25 86.2819C529.485 86.6929 535.168 87.2449 541.5 88.9279C558.688 93.4959 567.818 99.7459 572.481 110.136C575.079 115.927 575.216 116.93 574.76 126.898C574.216 138.822 572.367 145.205 565.463 159C539.819 210.241 461.634 282.171 375.5 333.765C354.469 346.363 323.937 362.356 301 372.79C197.371 419.928 108.044 434.764 61.3519 412.59C49.6119 407.015 43.6839 399.72 40.3529 386.749C31.1729 350.996 75.2359 287.612 147 233.341C152.775 228.974 157.656 225.051 157.847 224.624C158.037 224.197 155.741 220.747 152.743 216.959L147.293 210.071L135.396 218.678C82.0079 257.304 32.5799 311.726 12.9449 353.5C3.14989 374.338 -0.510126 389.428 0.233874 405.905C0.982874 422.489 6.04388 433.964 17.7579 445.644C34.9239 462.76 60.3859 473.705 90.7759 477.031C106.863 478.791 145.55 477.782 162.5 475.158C226.068 465.321 294.35 440.347 365.821 400.794C442.395 358.416 514.395 302.041 565.431 244.5C608.994 195.385 633.154 143.051 626.598 112C624.15 100.403 619.864 92.6589 611.096 83.9889C599.593 72.6159 586.922 66.7799 566.558 63.4769C555.167 61.6299 522.464 61.6719 508.5 63.5529ZM474.5 352.636C458.996 364.506 405.761 399.58 400.675 401.275C400.058 401.481 400.174 404.124 400.99 408.448C405.454 432.107 395.21 459.285 374.37 479.074C349.613 502.584 317.859 513.517 270.81 514.731C236.419 515.618 210.838 512.308 185.294 503.666C181.338 502.328 177.965 501.366 177.8 501.528C177.137 502.182 152.689 506.305 140.309 507.852L127.118 509.5L132.809 517.985C144.276 535.084 164.133 552.025 186 563.367C203.229 572.304 224.62 578.866 249 582.694C265.565 585.295 315.623 585.292 331.5 582.689C369.192 576.51 400.091 562.67 430.5 538.347C461.071 513.894 483.761 479.783 492.393 445.299C496.459 429.059 497.438 420.463 497.439 401C497.44 382.37 496.307 372.983 492.368 359C490.483 352.309 486.985 343.961 486.127 344.107C485.782 344.166 480.55 348.004 474.5 352.636Z" fill="black"/>
</svg>
